<svg width="16" height="13" viewBox="0 0 16 13" fill="none" xmlns="http://www.w3.org/2000/svg">
<path d="M14.373 9.33985C14.0281 9.33985 13.7459 9.59409 13.7459 9.9049V10.6537C13.7459 10.9221 13.5108 11.1199 13.2129 11.1199L2.78709 11.12C2.50496 11.12 2.25409 10.9081 2.25409 10.6538V9.905C2.25409 9.59419 1.97195 9.33994 1.62704 9.33994C1.28214 9.33994 1 9.59419 1 9.905V10.6538C1 11.5297 1.79952 12.2502 2.78723 12.2502H13.2128C14.2005 12.2502 15 11.5297 15 10.6538V9.905C15 9.59419 14.7178 9.33984 14.373 9.33984V9.33985Z" fill="white" stroke="white" stroke-width="0.497205"/>
<path d="M7.4592 9.41026L7.53761 9.48092H7.56899L7.60038 9.5092H7.6474C7.66304 9.5092 7.66304 9.5092 7.67879 9.5233C7.71018 9.53739 7.74145 9.53739 7.78859 9.53739H7.99221C8.03923 9.53739 8.07062 9.5233 8.102 9.5233C8.11764 9.5233 8.14903 9.5092 8.16467 9.49501C8.1803 9.49501 8.1803 9.48092 8.19605 9.48092H8.22744L8.2901 9.42445L11.1591 7.20635C11.4099 6.99447 11.4412 6.64129 11.2217 6.41522C10.9866 6.18916 10.5947 6.16098 10.3438 6.35876L8.54098 7.75743V1.2728L8.52534 1.24452C8.43129 0.947788 8.14905 0.75 7.85126 0.75C7.50636 0.75 7.22422 1.00425 7.22422 1.31506V7.74317L5.42114 6.35868C5.29571 6.25974 5.139 6.20327 4.96655 6.21736C4.7941 6.23145 4.63726 6.30211 4.54323 6.41514C4.43343 6.52818 4.37077 6.66939 4.38641 6.8248C4.40205 6.98021 4.48046 7.12153 4.60589 7.20627L7.4592 9.41026Z" fill="white" stroke="white" stroke-width="0.497205"/>
</svg>
