<svg width="14" height="14" viewBox="0 0 14 14" fill="none" xmlns="http://www.w3.org/2000/svg">
<path d="M0.663229 3.10856H2.63792C2.90313 3.72998 3.53685 4.18185 4.2884 4.18185C5.03994 4.18185 5.67367 3.74407 5.93888 3.10856H13.3367C13.7051 3.10856 13.9998 2.82613 13.9998 2.47306C13.9998 2.12 13.7051 1.83757 13.3367 1.83757L5.93888 1.83747C5.67367 1.18788 5.03994 0.75 4.2884 0.75C3.53685 0.75 2.90313 1.18778 2.63792 1.8233L0.663124 1.82339C0.294707 1.82339 0 2.10582 0 2.45889C0 2.81195 0.294707 3.10858 0.663124 3.10858L0.663229 3.10856Z" fill="white"/>
<path d="M13.3368 6.25835H11.3621C11.0969 5.63693 10.4632 5.18506 9.71166 5.18506C8.96012 5.18506 8.32639 5.62284 8.06118 6.25835H0.663368C0.294951 6.25835 0.000244141 6.54078 0.000244141 6.89385C0.000244141 7.24691 0.294951 7.52934 0.663368 7.52934H8.06118C8.32639 8.15076 8.96012 8.60264 9.71166 8.60264C10.4632 8.60264 11.0969 8.16486 11.3621 7.52934H13.3369C13.7054 7.52934 14.0001 7.24691 14.0001 6.89385C14.0001 6.54078 13.7054 6.25835 13.3369 6.25835H13.3368Z" fill="white"/>
<path d="M13.3368 10.6783H5.939C5.67379 10.0569 5.04006 9.60498 4.28852 9.60498C3.53698 9.60498 2.90325 10.0428 2.63804 10.6783H0.663246C0.294829 10.6783 0.00012207 10.9607 0.00012207 11.3138C0.00012207 11.6668 0.294829 11.9493 0.663246 11.9493H2.63793C2.90314 12.5707 3.53687 13.0226 4.28842 13.0226C5.03996 13.0226 5.67369 12.5848 5.9389 11.9493L13.3367 11.9494C13.7051 11.9494 13.9998 11.6669 13.9998 11.3139C13.9998 10.9749 13.7051 10.6783 13.3367 10.6783L13.3368 10.6783Z" fill="white"/>
</svg>
