<svg width="33" height="38" viewBox="0 0 33 38" fill="none" xmlns="http://www.w3.org/2000/svg">
<path d="M4.22783 23.5726C4.3884 23.7325 4.58931 23.8127 4.75015 23.8127C4.95107 23.8127 5.15198 23.7325 5.27247 23.5726L7.5624 21.2912C7.84374 21.0109 7.84374 20.5308 7.5624 20.2106C7.28106 19.9303 6.79906 19.9303 6.47769 20.2106L5.4734 21.2111V17.6094H15.7172V21.2111L14.7527 20.2109C14.4714 19.9306 13.9894 19.9306 13.668 20.2109C13.3867 20.4912 13.3867 20.9713 13.668 21.2915L15.9579 23.5729C16.1185 23.7325 16.3194 23.8127 16.5203 23.8127C16.7212 23.8127 16.9221 23.7325 17.0426 23.5726L19.3326 21.2912C19.6139 21.011 19.6139 20.5308 19.3326 20.2106C19.0512 19.9303 18.5692 19.9303 18.2479 20.2106L17.2436 21.2111V17.6094H27.4874V21.2111L26.5232 20.2109C26.2418 19.9306 25.7598 19.9306 25.4384 20.2109C25.1571 20.4912 25.1571 20.9714 25.4384 21.2915L27.7284 23.5729C27.8889 23.7328 28.0899 23.8129 28.2507 23.8129C28.4113 23.8129 28.6525 23.7328 28.773 23.5729L31.063 21.2915C31.3443 21.0112 31.3443 20.531 31.063 20.2109C30.7816 19.9306 30.2996 19.9306 29.9782 20.2109L28.9739 21.2114L28.9737 16.8492C28.9737 16.4489 28.6122 16.0887 28.2103 16.0887H17.2836V12.767C18.4485 12.767 19.5332 12.7271 20.3366 12.7271C20.899 12.6871 21.3409 12.2067 21.2605 11.6464L20.9791 9.40531C20.8186 8.00443 19.7739 6.92408 18.4483 6.60391L17.1226 9.88578L16.8413 7.52461H17.0422C17.1627 7.52461 17.2431 7.44449 17.2431 7.32445V6.68405C17.2431 6.56401 17.1627 6.48389 17.0422 6.48389H15.9978C15.8773 6.48389 15.7969 6.56401 15.7969 6.68405V7.32445C15.7969 7.44449 15.8773 7.52461 15.9978 7.52461H16.1987L15.9174 9.88578L14.5917 6.60391C13.266 6.92412 12.2216 8.00479 12.0608 9.40531L11.7795 11.6464C11.699 12.2067 12.1409 12.7271 12.7033 12.7271C13.4667 12.767 14.5914 12.767 15.7563 12.767V16.0887H4.74998C4.34815 16.0887 3.98665 16.4488 3.98665 16.8492V21.2114L2.98236 20.2109C2.70102 19.9306 2.21902 19.9306 1.89765 20.2109C1.61631 20.4912 1.61631 20.9714 1.89765 21.2915L4.22783 23.5726Z" fill="#245A90"/>
<path d="M19.4529 2.92146C19.4529 4.53502 18.1401 5.84321 16.5205 5.84321C14.9008 5.84321 13.588 4.53502 13.588 2.92146C13.588 1.3079 14.9008 0 16.5205 0C18.1401 0 19.4529 1.3079 19.4529 2.92146Z" fill="#245A90"/>
<path d="M18.4486 31.8168L17.1229 35.0987L16.8416 32.7375H17.0425C17.163 32.7375 17.2434 32.6574 17.2434 32.5373V31.8969C17.2434 31.7769 17.163 31.6968 17.0425 31.6968H15.9981C15.8776 31.6968 15.7972 31.7769 15.7972 31.8969V32.5373C15.7972 32.6574 15.8776 32.7375 15.9981 32.7375H16.199L15.9177 35.0987L14.5922 31.8168C13.2665 32.137 12.2222 33.2177 12.0613 34.6182L11.78 36.8593C11.6996 37.4196 12.1415 37.9399 12.7039 37.9399C14.5919 38.0201 18.4082 38.0201 20.2963 37.9399C20.8587 37.9 21.3006 37.4196 21.2202 36.8593L20.9795 34.6182C20.8189 33.2176 19.7743 32.137 18.4486 31.8168H18.4486Z" fill="#245A90"/>
<path d="M19.4529 28.1749C19.4529 29.7884 18.1401 31.0966 16.5205 31.0966C14.9008 31.0966 13.588 29.7884 13.588 28.1749C13.588 26.5616 14.9008 25.2534 16.5205 25.2534C18.1401 25.2534 19.4529 26.5616 19.4529 28.1749Z" fill="#245A90"/>
<path d="M6.67828 31.8166L5.35261 35.0985L5.07127 32.7373L5.27219 32.737C5.39268 32.737 5.4731 32.6569 5.4731 32.5369V31.8964C5.4731 31.7764 5.39268 31.6963 5.27219 31.6963H4.22779C4.1073 31.6963 4.02688 31.7764 4.02688 31.8964V32.5369C4.02688 32.6569 4.1073 32.737 4.22779 32.737H4.42871L4.14737 35.0982L2.82171 31.8166C1.49604 32.1368 0.451647 33.2175 0.290817 34.618L0.00947895 36.8591C-0.0709434 37.4194 0.37096 37.9397 0.933357 37.9397C2.82143 38.0199 6.63774 38.0199 8.52581 37.9397C9.0882 37.8998 9.5301 37.4194 9.44969 36.8591L9.20898 34.618C9.04841 33.2174 8.00404 32.1368 6.67838 31.8166L6.67828 31.8166Z" fill="#245A90"/>
<path d="M7.6826 28.1749C7.6826 29.7884 6.36948 31.0966 4.75013 31.0966C3.1305 31.0966 1.81738 29.7884 1.81738 28.1749C1.81738 26.5616 3.1305 25.2534 4.75013 25.2534C6.36948 25.2534 7.6826 26.5616 7.6826 28.1749Z" fill="#245A90"/>
<path d="M32.7496 34.6182C32.5891 33.2173 31.5444 32.137 30.2188 31.8168L28.8931 35.0987L28.6118 32.7375H28.8127C28.9332 32.7375 29.0136 32.6574 29.0136 32.5373V31.8969C29.0136 31.7769 28.9332 31.6968 28.8127 31.6968H27.7686C27.6481 31.6968 27.5677 31.7769 27.5677 31.8969V32.5373C27.5677 32.6574 27.6481 32.7375 27.7686 32.7375H27.9695L27.6881 35.0987L26.3625 31.8168C25.0368 32.137 23.9924 33.2177 23.8316 34.6182L23.5503 36.8593C23.4698 37.4196 23.9117 37.9399 24.4741 37.9399C26.3622 38.0201 30.1785 38.0201 32.0666 37.9399C32.629 37.9 33.0709 37.4196 32.9905 36.8593L32.7496 34.6182Z" fill="#245A90"/>
<path d="M31.2231 28.1749C31.2231 29.7884 29.91 31.0966 28.2904 31.0966C26.671 31.0966 25.3579 29.7884 25.3579 28.1749C25.3579 26.5616 26.671 25.2534 28.2904 25.2534C29.91 25.2534 31.2231 26.5616 31.2231 28.1749Z" fill="#245A90"/>
</svg>
