<svg width="33" height="37" viewBox="0 0 33 37" fill="none" xmlns="http://www.w3.org/2000/svg">
<path d="M25 16H32V37H25V16Z" fill="#245A90"/>
<path fill-rule="evenodd" clip-rule="evenodd" d="M28.4965 7L29.8855 9.63263L33 10.0559L30.7523 12.1049L31.2832 15L28.4965 13.6366L25.7173 15L26.2482 12.1049L24 10.0559L27.1069 9.63263L28.4965 7Z" fill="#245A90"/>
<path d="M1 21H8V37H1V21Z" fill="#245A90"/>
<path fill-rule="evenodd" clip-rule="evenodd" d="M4.50357 12L5.89312 14.633L9 15.0557L6.75177 17.1046L7.28265 20L4.50348 18.6291L1.71679 20L2.24767 17.1046L0 15.0557L3.10632 14.633L4.50357 12Z" fill="#245A90"/>
<path d="M13 9H20V37H13V9Z" fill="#245A90"/>
<path fill-rule="evenodd" clip-rule="evenodd" d="M16.4963 0L17.8933 2.63298L21 3.05569L18.7519 5.10462L19.2828 8L16.4962 6.62914L13.7172 8L14.2481 5.10462L12 3.05569L15.1067 2.63298L16.4963 0Z" fill="#245A90"/>
</svg>
