<svg width="38" height="38" viewBox="0 0 38 38" fill="none" xmlns="http://www.w3.org/2000/svg">
<path d="M36.3866 10.215H19.2356C18.808 10.215 18.3981 10.3849 18.0956 10.6874C17.7931 10.9896 17.6232 11.3998 17.6232 11.8274V36.3875C17.6232 36.8152 17.7931 37.2254 18.0956 37.5276C18.398 37.8301 18.808 38 19.2356 38H36.3866C36.8143 38 37.2245 37.8304 37.527 37.5279C37.8294 37.2257 37.9994 36.8155 37.9994 36.3878V11.827C37.9994 11.3993 37.8297 10.9891 37.5273 10.6866C37.2248 10.3845 36.8145 10.2145 36.3869 10.2145L36.3866 10.215ZM23.359 34.4064C23.359 34.6947 23.2445 34.9716 23.0406 35.1754C22.8365 35.3792 22.56 35.4937 22.2717 35.4937H20.5626C20.2743 35.4937 19.9977 35.3792 19.7937 35.1754C19.5899 34.9716 19.4753 34.6947 19.4753 34.4064V33.2964C19.4753 33.008 19.5899 32.7312 19.7937 32.5274C19.9978 32.3236 20.2743 32.209 20.5626 32.209H22.2717C22.56 32.209 22.8366 32.3236 23.0406 32.5274C23.2444 32.7312 23.359 33.008 23.359 33.2964V34.4064ZM23.359 29.1806C23.359 29.4692 23.2445 29.7458 23.0406 29.9495C22.8365 30.1533 22.56 30.2679 22.2717 30.2679H20.5626C20.2743 30.2679 19.9977 30.1537 19.7937 29.9495C19.5899 29.7457 19.4753 29.4692 19.4753 29.1809V28.0705C19.4753 27.7822 19.5899 27.5057 19.7937 27.3016C19.9978 27.0978 20.2743 26.9832 20.5626 26.9832H22.2717C22.56 26.9832 22.8366 27.0978 23.0406 27.3016C23.2444 27.5057 23.359 27.7822 23.359 28.0705V29.1806ZM23.359 23.955V23.9553C23.359 24.2436 23.2445 24.5202 23.0406 24.7239C22.8365 24.928 22.56 25.0426 22.2717 25.0426H20.5626C20.2743 25.0426 19.9977 24.9281 19.7937 24.7239C19.5899 24.5201 19.4753 24.2436 19.4753 23.9553V22.8447C19.4753 22.5564 19.5899 22.2798 19.7937 22.0758C19.9978 21.872 20.2743 21.7574 20.5626 21.7574H22.2717C22.56 21.7574 22.8366 21.8719 23.0406 22.0758C23.2444 22.2799 23.359 22.5564 23.359 22.8447V23.955ZM29.7526 34.4063C29.7526 34.6947 29.6381 34.9715 29.4343 35.1753C29.2305 35.3791 28.9539 35.4937 28.6653 35.4937H26.9562C26.6679 35.4937 26.3914 35.3791 26.1876 35.1753C25.9835 34.9715 25.8689 34.6946 25.8689 34.4063V33.2963C25.8689 33.008 25.9835 32.7311 26.1876 32.5273C26.3914 32.3235 26.6679 32.2089 26.9562 32.2089H28.6653C28.9539 32.2089 29.2305 32.3235 29.4343 32.5273C29.6381 32.7311 29.7526 33.008 29.7526 33.2963V34.4063ZM29.7526 29.1805C29.7526 29.4691 29.6381 29.7457 29.4343 29.9495C29.2305 30.1533 28.9539 30.2678 28.6653 30.2678H26.9562C26.6679 30.2678 26.3914 30.1536 26.1876 29.9495C25.9835 29.7457 25.8689 29.4691 25.8689 29.1808V28.0705C25.8689 27.7821 25.9835 27.5056 26.1876 27.3015C26.3914 27.0977 26.6679 26.9831 26.9562 26.9831H28.6653C28.9539 26.9831 29.2305 27.0977 29.4343 27.3015C29.6381 27.5056 29.7526 27.7822 29.7526 28.0705V29.1805ZM29.7526 23.9549V23.9552C29.7526 24.2435 29.6381 24.5201 29.4343 24.7239C29.2305 24.928 28.9539 25.0425 28.6653 25.0425H26.9562C26.6679 25.0425 26.3914 24.928 26.1876 24.7239C25.9835 24.5201 25.8689 24.2435 25.8689 23.9552V22.8446C25.8689 22.5563 25.9835 22.2798 26.1876 22.0757C26.3914 21.8719 26.6679 21.7573 26.9562 21.7573H28.6653C28.9539 21.7573 29.2305 21.8719 29.4343 22.0757C29.6381 22.2798 29.7526 22.5563 29.7526 22.8446V23.9549ZM36.1466 33.2964V34.4068V34.4065C36.1466 34.6948 36.032 34.9717 35.8279 35.1754C35.6241 35.3792 35.3475 35.4938 35.0592 35.4938H33.3502C33.0615 35.4938 32.785 35.3793 32.5812 35.1754C32.3774 34.9716 32.2628 34.6948 32.2628 34.4065V28.0706C32.2628 27.7823 32.3774 27.5057 32.5812 27.3017C32.785 27.0979 33.0616 26.9833 33.3502 26.9833H35.0592C35.3476 26.9833 35.6241 27.0979 35.8279 27.3017C36.032 27.5058 36.1466 27.7823 36.1466 28.0706V33.2964ZM36.1466 23.9557C36.1466 24.244 36.032 24.5206 35.8279 24.7243C35.6241 24.9284 35.3475 25.043 35.0592 25.043H33.3502C33.0615 25.043 32.785 24.9284 32.5812 24.7243C32.3774 24.5205 32.2628 24.244 32.2628 23.9557V22.8451C32.2628 22.5568 32.3774 22.2802 32.5812 22.0761C32.785 21.8723 33.0616 21.7578 33.3502 21.7578H35.0592C35.3476 21.7578 35.6241 21.8723 35.8279 22.0761C36.032 22.2802 36.1466 22.5568 36.1466 22.8451V23.9557ZM36.1819 18.8957H19.4396V12.7211H36.1819V18.8957ZM20.9249 8.10353C20.2937 5.5106 18.7092 3.25055 16.4865 1.77355C14.2639 0.29685 11.5667 -0.288672 8.93191 0.133995C6.29721 0.556625 3.9181 1.95646 2.26912 4.05426C0.619847 6.15237 -0.178291 8.79476 0.0334948 11.4548C0.245251 14.1148 1.45131 16.5976 3.41129 18.4085C5.37127 20.2192 7.94181 21.2252 10.6104 21.2258C12.3177 21.2285 13.9999 20.8153 15.5123 20.0224V11.8269C15.5138 10.8397 15.9066 9.89342 16.6046 9.19549C17.3026 8.49755 18.2489 8.10459 19.2361 8.10316L20.9249 8.10353ZM11.0548 9.89448C12.4402 10.7501 14.0103 11.7199 14.0103 13.4681L14.01 13.4678C14.0123 14.1917 13.7561 14.8924 13.2878 15.444C12.8195 15.9959 12.1698 16.3623 11.4553 16.4777V17.9182H9.76661V16.4559C9.03651 16.268 8.38943 15.8433 7.92711 15.248C7.46472 14.6528 7.2132 13.9209 7.21173 13.1673H8.90074C8.90104 13.6205 9.08157 14.0552 9.4023 14.3759C9.72273 14.6964 10.1575 14.8769 10.611 14.8772C11.3997 14.8772 12.3212 14.5079 12.3212 13.4677C12.3212 12.6613 11.2748 12.0151 10.1672 11.331C8.78179 10.4754 7.21176 9.50555 7.21176 7.75735C7.20969 7.03373 7.46563 6.33306 7.9339 5.78116C8.40218 5.22954 9.05217 4.86284 9.76669 4.74711V3.3069H11.4554V4.7692C12.1855 4.9571 12.8323 5.38179 13.2947 5.97704C13.7571 6.57225 14.0089 7.30415 14.0101 8.05811H12.3213C12.3208 7.60456 12.1405 7.16987 11.8198 6.84914C11.4991 6.52871 11.0643 6.34817 10.6111 6.34788C9.82241 6.34788 8.90085 6.7172 8.90085 7.7577C8.90085 8.56376 9.94727 9.20997 11.0546 9.89441L11.0548 9.89448Z" fill="#245A90"/>
</svg>
