<svg width="24" height="23" viewBox="0 0 24 23" fill="none" xmlns="http://www.w3.org/2000/svg">
<path d="M8.87015 2.07315V10.6427C8.87015 11.1925 8.64227 11.7199 8.23657 12.1087C7.83087 12.4975 7.28053 12.7159 6.70682 12.7159H2.16341C1.58969 12.7159 1.03937 12.4975 0.633652 12.1087C0.22795 11.7199 7.76173e-05 11.1925 7.76173e-05 10.6427V2.07315C7.76173e-05 1.52335 0.227957 0.995968 0.633652 0.607165C1.03935 0.218374 1.5897 0 2.16341 0H6.70682C7.28054 0 7.83086 0.21838 8.23657 0.607165C8.64228 0.995955 8.87015 1.52336 8.87015 2.07315V2.07315ZM6.70655 14.292H2.16333C1.58961 14.292 1.03929 14.5106 0.633575 14.8994C0.227872 15.2882 0 15.8156 0 16.3654V20.9267C0 21.4765 0.227879 22.0039 0.633575 22.3927C1.03928 22.7815 1.58962 22.9999 2.16333 22.9999H6.70674C7.28046 22.9999 7.83078 22.7815 8.2365 22.3927C8.6422 22.0039 8.87007 21.4765 8.87007 20.9267V16.3654C8.87007 15.8156 8.64219 15.2882 8.2365 14.8994C7.8308 14.5106 7.28045 14.292 6.70674 14.292H6.70655ZM21.8367 9.19169L12.678 9.19193C12.1043 9.19193 11.5539 9.41031 11.1482 9.79909C10.7425 10.1879 10.5147 10.7153 10.5147 11.2651V20.9268C10.5147 21.4767 10.7425 22.004 11.1482 22.3928C11.5539 22.7816 12.1043 23 12.678 23H21.8367C22.4104 23 22.9607 22.7816 23.3664 22.3928C23.7721 22.004 24 21.4766 24 20.9268V11.2651C24 10.7153 23.7721 10.1879 23.3664 9.79909C22.9607 9.4103 22.4104 9.19193 21.8367 9.19193V9.19169ZM21.8367 0.000111102L12.678 0.000352137C12.1043 0.000352137 11.5539 0.218732 11.1482 0.607517C10.7425 0.996308 10.5147 1.52371 10.5147 2.0735V5.54299C10.5147 6.09279 10.7425 6.62017 11.1482 7.00898C11.5539 7.39777 12.1043 7.61614 12.678 7.61614H21.8367C22.4104 7.61614 22.9607 7.39776 23.3664 7.00898C23.7721 6.62019 24 6.09278 24 5.54299V2.0735C24 1.5237 23.7721 0.99632 23.3664 0.607517C22.9607 0.218726 22.4104 0.000352137 21.8367 0.000352137V0.000111102Z" fill="#F5F6F8"/>
</svg>
