<svg width="38" height="38" viewBox="0 0 38 38" fill="none" xmlns="http://www.w3.org/2000/svg">
<path d="M35.9999 32.0098H1.99991V29.0144C1.99991 28.4628 2.44738 28.016 2.99982 28.016H34.9998C35.2652 28.016 35.5195 28.1212 35.7071 28.3085C35.8944 28.4955 35.9997 28.7497 35.9997 29.0144L35.9999 32.0098ZM9.99991 26.0191V14.0382H4V26.0191H9.99991ZM21.9999 26.0191L22.0003 14.0382H16V26.0191H21.9999ZM33.9999 26.0191L34.0003 14.0382H28.0003V26.0191H33.9999ZM2.99991 12.0414H34.9999C35.2653 12.0414 35.5196 11.9362 35.7072 11.7489C35.8945 11.5615 35.9998 11.3077 35.9998 11.0427V7.04899V7.04934C36.0225 6.61407 35.7655 6.21258 35.3598 6.05067L19.3598 0.0603282C19.1269 -0.0201094 18.873 -0.0201094 18.64 0.0603282L2.63997 6.05067C2.23435 6.21259 1.9773 6.61408 1.99997 7.04934V11.0431V11.0427C1.99997 11.3077 2.1053 11.5615 2.29259 11.7489C2.48023 11.9362 2.73448 12.0414 2.9999 12.0414H2.99991ZM36.9999 34.0063H0.99991C0.447803 34.0063 0 34.4534 0 35.0046V38H38V35.0046C38 34.74 37.8947 34.4858 37.707 34.2988C37.5194 34.1114 37.2651 34.0063 37.0001 34.0063L36.9999 34.0063Z" fill="#245A90"/>
</svg>
