<svg width="29" height="38" viewBox="0 0 29 38" fill="none" xmlns="http://www.w3.org/2000/svg">
<path d="M4.14245 0.157228L0.23609 3.3251C0.00195039 3.51369 -0.0675636 3.84506 0.0706381 4.11421L4.55119 12.7588C6.09509 11.3505 7.927 10.2641 9.94414 9.602L7.90394 5.70046H21.1283L19.0869 9.60062C21.1043 10.2622 22.9368 11.3483 24.4812 12.7563L28.9279 4.17617C29.0661 3.90982 29.001 3.58156 28.7722 3.39068L24.9119 0.174455C24.7462 0.0364805 24.635 0 24.4812 0H4.54896C4.39658 0 4.23613 0.0814297 4.1427 0.156924L4.14245 0.157228ZM14.5172 10.1373C6.95646 10.1373 0.81021 16.3819 0.81021 24.0694C0.81021 31.7571 6.95646 38 14.5172 38C22.0779 38 28.2192 31.7568 28.2192 24.0694C28.2192 16.3817 22.0777 10.1373 14.5172 10.1373ZM14.5172 13.3014C20.3578 13.3014 25.1062 18.1307 25.1062 24.0697C25.1062 30.0087 20.3578 34.8365 14.5172 34.8365C8.67654 34.8365 3.92818 30.0087 3.92818 24.0697C3.92818 18.131 8.67654 13.3014 14.5172 13.3014ZM14.5172 14.5693C9.34975 14.5693 5.17395 18.8152 5.17395 24.0694C5.17395 29.3236 9.34975 33.5696 14.5172 33.5696C19.6846 33.5696 23.8604 29.3236 23.8604 24.0694C23.8604 18.8152 19.6846 14.5693 14.5172 14.5693ZM15.0964 17.5047L16.6281 21.6189L20.8033 21.9741C21.375 22.0247 21.5814 22.7677 21.1195 23.1147L17.8735 25.5553L19.4234 30.2027C19.6242 30.7798 18.983 31.2822 18.4855 30.9376L14.5171 28.2447L10.5438 30.9376C10.0535 31.2681 9.42728 30.7874 9.60582 30.2177L11.0863 25.5134L7.90987 23.1149C7.4491 22.7694 7.65237 22.0277 8.22242 21.9743L12.3515 21.5909L13.9379 17.4951C14.0316 17.252 14.2627 17.0908 14.5208 17.0931C14.7785 17.0953 15.0065 17.2607 15.0961 17.505L15.0964 17.5047Z" fill="#245A90"/>
</svg>
