<svg width="43" height="38" viewBox="0 0 43 38" fill="none" xmlns="http://www.w3.org/2000/svg">
<path fill-rule="evenodd" clip-rule="evenodd" d="M14.4007 10.3241C15.2284 10.5359 16.0097 10.8642 16.7266 11.2901L19.6377 9.17986L21.9675 11.5126L19.86 14.4275C20.2853 15.1452 20.6128 15.9275 20.824 16.7563L24.3717 17.3249V20.6235L20.824 21.1921C20.6121 22.0208 20.2847 22.8031 19.8593 23.5209L21.9668 26.4358L19.6371 28.7685L16.7259 26.6583C16.0091 27.0842 15.2278 27.4121 14.4001 27.6236L13.8322 31.1758H10.5378L9.96994 27.6236C9.14229 27.4118 8.361 27.0835 7.6441 26.6577L4.73296 28.7679L2.40454 26.4351L4.51204 23.5203C4.08672 22.8025 3.75922 22.0202 3.54802 21.1914L0 20.6229V17.3242L3.54769 16.7556C3.75922 15.9269 4.08703 15.1446 4.51171 14.4268L2.40454 11.5119L4.73428 9.1792L7.64542 11.2894C8.36228 10.8635 9.14358 10.5356 9.97127 10.3235L10.5391 6.77124H13.8336L14.4007 10.3241ZM32.9456 5.0327H29.6234V18.2839L32.9456 18.2959V19.6793L29.6234 19.6672V32.9675H32.9456V34.356H28.9298C28.5466 34.356 28.2363 34.045 28.2363 33.6616L28.236 19.6622L25.7582 19.6535V18.2702L28.236 18.2789V4.33852C28.236 3.95482 28.5466 3.64409 28.9295 3.64409H32.945L32.9453 5.03323L32.9456 5.0327ZM12.1858 14.0999C9.49779 14.0999 7.31839 16.2817 7.31839 18.9735C7.31839 21.6649 9.49746 23.8471 12.1858 23.8471C14.8738 23.8471 17.0532 21.6653 17.0532 18.9735C17.0532 16.2817 14.8744 14.0999 12.1858 14.0999ZM36.0562 29.3231H41.2774C42.2249 29.3231 43 30.0996 43 31.048V36.2752C43 37.2239 42.2245 38 41.2774 38H36.0562C35.1087 38 34.3336 37.2235 34.3336 36.2752V31.048C34.3333 30.0996 35.1084 29.3231 36.0562 29.3231ZM36.0562 14.6612H41.2774C42.2249 14.6612 43 15.4377 43 16.386V21.6139C43 22.5626 42.2245 23.3387 41.2774 23.3387L36.0562 23.3384C35.1087 23.3384 34.3336 22.5619 34.3336 21.6135V16.3864C34.3333 15.4376 35.1084 14.6612 36.0562 14.6612V14.6612ZM36.0562 7.53854e-05H41.2774C42.2249 7.53854e-05 43 0.776566 43 1.72492V6.95209C43 7.90082 42.2245 8.67693 41.2774 8.67693L36.0562 8.67661C35.1087 8.67661 34.3336 7.90012 34.3336 6.95176V1.72459C34.3333 0.77586 35.1084 0 36.0562 0V7.53854e-05Z" fill="#245A90"/>
</svg>
