<svg width="24" height="23" viewBox="0 0 24 23" fill="none" xmlns="http://www.w3.org/2000/svg">
<path d="M0 1.98882C0 0.890425 0.890425 0 1.98882 0H22.0112C23.1096 0 24 0.890425 24 1.98882V4.84213H0V1.98882Z" fill="#245A90"/>
<path d="M0 7.04714C0 6.49795 0.445212 6.05273 0.99441 6.05273H6.20559C6.75479 6.05273 7.2 6.49795 7.2 7.04714V9.90046C7.2 10.4497 6.75479 10.8949 6.20559 10.8949H0.99441C0.445213 10.8949 0 10.4497 0 9.90046V7.04714Z" fill="#245A90"/>
<path d="M8.40002 7.04714C8.40002 6.49795 8.84524 6.05273 9.39443 6.05273H14.6056C15.1548 6.05273 15.6 6.49795 15.6 7.04714V9.90046C15.6 10.4497 15.1548 10.8949 14.6056 10.8949H9.39443C8.84524 10.8949 8.40002 10.4497 8.40002 9.90046V7.04714Z" fill="#245A90"/>
<path d="M16.8 7.04714C16.8 6.49795 17.2452 6.05273 17.7944 6.05273H23.0056C23.5548 6.05273 24 6.49795 24 7.04714V9.90046C24 10.4497 23.5548 10.8949 23.0056 10.8949H17.7944C17.2452 10.8949 16.8 10.4497 16.8 9.90046V7.04714Z" fill="#245A90"/>
<path d="M0 13.0999C0 12.5507 0.445212 12.1055 0.99441 12.1055H6.20559C6.75479 12.1055 7.2 12.5507 7.2 13.0999V15.9532C7.2 16.5024 6.75479 16.9476 6.20559 16.9476H0.99441C0.445213 16.9476 0 16.5024 0 15.9532V13.0999Z" fill="#245A90"/>
<path d="M8.40002 13.0999C8.40002 12.5507 8.84524 12.1055 9.39443 12.1055H14.6056C15.1548 12.1055 15.6 12.5507 15.6 13.0999V15.9532C15.6 16.5024 15.1548 16.9476 14.6056 16.9476H9.39443C8.84524 16.9476 8.40002 16.5024 8.40002 15.9532V13.0999Z" fill="#245A90"/>
<path d="M16.8 13.0999C16.8 12.5507 17.2452 12.1055 17.7944 12.1055H23.0056C23.5548 12.1055 24 12.5507 24 13.0999V15.9532C24 16.5024 23.5548 16.9476 23.0056 16.9476H17.7944C17.2452 16.9476 16.8 16.5024 16.8 15.9532V13.0999Z" fill="#245A90"/>
<path d="M0 19.1521C0 18.6029 0.445213 18.1577 0.99441 18.1577H6.20559C6.75479 18.1577 7.2 18.6029 7.2 19.1521V22.0054C7.2 22.5546 6.75479 22.9998 6.20559 22.9998H1.98882C0.890426 22.9998 0 22.1094 0 21.011V19.1521Z" fill="#245A90"/>
<path d="M8.40002 19.1521C8.40002 18.6029 8.84524 18.1577 9.39443 18.1577H14.6056C15.1548 18.1577 15.6 18.6029 15.6 19.1521V22.0054C15.6 22.5546 15.1548 22.9998 14.6056 22.9998H9.39443C8.84524 22.9998 8.40002 22.5546 8.40002 22.0054V19.1521Z" fill="#245A90"/>
<path d="M16.8 19.1521C16.8 18.6029 17.2452 18.1577 17.7944 18.1577H23.0056C23.5548 18.1577 24 18.6029 24 19.1521V21.011C24 22.1094 23.1096 22.9998 22.0112 22.9998H17.7944C17.2452 22.9998 16.8 22.5546 16.8 22.0054V19.1521Z" fill="#245A90"/>
</svg>
